<svg xmlns="http://www.w3.org/2000/svg" width="24" height="24" viewBox="0 0 64 64"><g><rect width="4" height="15" x="30" y="4" fill="#BBB" transform="rotate(0, 32, 32)"/><rect width="4" height="15" x="30" y="4" fill="#AAA" transform="rotate(30, 32, 32)"/><rect width="4" height="15" x="30" y="4" fill="#999" transform="rotate(60, 32, 32)"/><rect width="4" height="15" x="30" y="4" fill="#888" transform="rotate(90, 32, 32)"/><rect width="4" height="15" x="30" y="4" fill="#777" transform="rotate(120, 32, 32)"/><rect width="4" height="15" x="30" y="4" fill="#666" transform="rotate(150, 32, 32)"/><rect width="4" height="15" x="30" y="4" fill="#555" transform="rotate(180, 32, 32)"/><rect width="4" height="15" x="30" y="4" fill="#444" transform="rotate(210, 32, 32)"/><rect width="4" height="15" x="30" y="4" fill="#333" transform="rotate(240, 32, 32)"/><rect width="4" height="15" x="30" y="4" fill="#222" transform="rotate(270, 32, 32)"/><rect width="4" height="15" x="30" y="4" fill="#111" transform="rotate(300, 32, 32)"/><rect width="4" height="15" x="30" y="4" fill="#000" transform="rotate(330, 32, 32)"/><animateTransform attributeName="transform" calcMode="discrete" dur="0.8s" repeatCount="indefinite" type="rotate" values="0 32 32;30 32 32;60 32 32;90 32 32;120 32 32;150 32 32;180 32 32;210 32 32;240 32 32;270 32 32;300 32 32;330 32 32"/></g></svg>