<svg xmlns="http://www.w3.org/2000/svg" width="200" height="200"><metadata>image/svg+xmlOpen Clip Art Librarypalette2009-02-17T21:15:25http://openclipart.org/detail/21620/palette-by-benbenclip artclipartcolorcoloriconiconimagemediapaintpaintpalettepalettepngpublic domainsvg</metadata><g><title>Layer 1</title><g id="layer1"><rect id="rect6786" width="200" height="200" x="0" y="0" fill="#000" stroke-dashoffset="0" stroke-miterlimit="4" stroke-width="2" rx="26.786" ry="23.587"/><g id="g6820" transform="matrix(4.65116, 0, 0, 4.65116, -1717.85, -314.201)"><path id="path6822" fill="#fff" stroke-dasharray="3.85 3.85" stroke-dashoffset="3.657" stroke-miterlimit="4" stroke-width="1.925" d="m388.618042,70.128563c-4.746887,0 -18.367279,0.849472 -18.34375,12.3125c0.001312,0.644249 1.226776,2.886879 2.25,3.125c7.5755,1.762962 7.986664,7.834511 7.53125,12.625c-0.03479,0.362747 0.589233,2.891006 1.125,3.53125c4.344635,5.191872 5.822723,7.468742 11.6875,7.46875c11.729614,0 18.3125,-5.93206 18.3125,-17.8125c0,-11.880463 -10.832916,-21.25 -22.5625,-21.25zm-11.875,8.1875c0.986481,0.058029 2.139893,0.464394 3.21875,1.1875c2.157715,1.44622 3.225708,3.668251 2.375,4.9375c-0.850739,1.269257 -3.311005,1.10247 -5.46875,-0.34375c-2.157745,-1.446228 -3.194458,-3.637001 -2.34375,-4.90625c0.425354,-0.634628 1.232269,-0.933029 2.21875,-0.875z"/><path id="path6824" fill="#ff7a00" stroke-dasharray="3.85 3.85" stroke-dashoffset="3.657" stroke-miterlimit="4" stroke-width="1.925" d="m392.586761,76.615746a3.5,3.5 0 1 1 -7,0a3.5,3.5 0 1 1 7,0z"/><path id="path6826" fill="#95d300" stroke-dasharray="3.85 3.85" stroke-dashoffset="3.657" stroke-miterlimit="4" stroke-width="1.925" d="m402.524292,81.553246a3.5,3.5 0 1 1 -7,0a3.5,3.5 0 1 1 7,0z"/><path id="path6828" fill="#00a6e4" stroke-dasharray="3.85 3.85" stroke-dashoffset="3.657" stroke-miterlimit="4" stroke-width="1.925" d="m408.461792,90.615746a3.5,3.5 0 1 1 -7,0a3.5,3.5 0 1 1 7,0z"/><path id="path6830" fill="#f9de00" stroke-dasharray="3.85 3.85" stroke-dashoffset="3.657" stroke-miterlimit="4" stroke-width="1.925" d="m403.643463,99.60791a3.5,3.5 0 1 1 -7,0a3.5,3.5 0 1 1 7,0z"/><path id="path6832" fill="#e600ad" stroke-dasharray="3.85 3.85" stroke-dashoffset="3.657" stroke-miterlimit="4" stroke-width="1.925" d="m393.518463,100.60791a3.5,3.5 0 1 1 -7,0a3.5,3.5 0 1 1 7,0z"/></g></g></g></svg>