<svg xmlns="http://www.w3.org/2000/svg" xmlns:xlink="http://www.w3.org/1999/xlink" x="0" y="0" version="1.1" viewBox="0 0 42 42" xml:space="preserve" style="enable-background:new 0 0 42 42"><style type="text/css">.st0{fill:#fff;filter:url(#Adobe_OpacityMaskFilter)}.st1{fill:#010101}.st2{mask:url(#mask-cutout-blocked-sign_1_)}.st3{fill:#f1f1f2}.st4{fill:#7f8081}.st5{fill:#4d4d4e}.st6{fill:#979899}.st7{fill:#010101;filter:url(#Adobe_OpacityMaskFilter_1_)}.st8{fill:#fff}.st9{mask:url(#mask-cutout-frame_1_);fill:#656667}.st10{fill:#fff;filter:url(#Adobe_OpacityMaskFilter_2_)}.st11{mask:url(#mask-cutout-blocked-sign-inner_1_);fill:#656667}.st12{fill:none;stroke:#656667;stroke-width:2}</style><g id="Layer_1"><defs><filter id="Adobe_OpacityMaskFilter" width="32" height="32" x="5" y="5" filterUnits="userSpaceOnUse"><feColorMatrix type="matrix" values="1 0 0 0 0 0 1 0 0 0 0 0 1 0 0 0 0 0 1 0"/></filter></defs><mask id="mask-cutout-blocked-sign_1_" width="32" height="32" x="5" y="5" maskUnits="userSpaceOnUse"><rect width="32" height="32" x="5" y="5" class="st0"/><circle cx="30" cy="30" r="8" class="st1"/></mask><g id="icon-frame" class="st2"><path id="shape-background" d="M10,9h22c1.7,0,3,1.3,3,3v18c0,1.7-1.3,3-3,3H10c-1.7,0-3-1.3-3-3V12 C7,10.3,8.3,9,10,9z" class="st3"/><polygon points="8 31 16 21 23 31" class="st4"/><polygon points="16 31 28 15 36 25 36 31" class="st5"/><circle cx="14" cy="16" r="3" class="st6"/><defs><filter id="Adobe_OpacityMaskFilter_1_" width="32" height="32" x="5" y="5" filterUnits="userSpaceOnUse"><feColorMatrix type="matrix" values="1 0 0 0 0 0 1 0 0 0 0 0 1 0 0 0 0 0 1 0"/></filter></defs><mask id="mask-cutout-frame_1_" width="32" height="32" x="5" y="5" maskUnits="userSpaceOnUse"><rect width="32" height="32" x="5" y="5" class="st7"/><path d="M10,9h22c1.7,0,3,1.3,3,3v18c0,1.7-1.3,3-3,3H10c-1.7,0-3-1.3-3-3V12C7,10.3,8.3,9,10,9z" class="st8"/><path d="M11,11h20c1.1,0,2,0.9,2,2v16c0,1.1-0.9,2-2,2H11c-1.1,0-2-0.9-2-2V13C9,11.9,9.9,11,11,11z" class="st1"/></mask><rect width="32" height="32" x="5" y="5" class="st9"/></g><g id="icon-blocked-sign"><defs><filter id="Adobe_OpacityMaskFilter_2_" width="12" height="12" x="24" y="24" filterUnits="userSpaceOnUse"><feColorMatrix type="matrix" values="1 0 0 0 0 0 1 0 0 0 0 0 1 0 0 0 0 0 1 0"/></filter></defs><mask id="mask-cutout-blocked-sign-inner_1_" width="12" height="12" x="24" y="24" maskUnits="userSpaceOnUse"><rect width="32" height="32" x="5" y="5" class="st10"/><circle cx="30" cy="30" r="4" class="st1"/></mask><circle cx="30" cy="30" r="6" class="st11"/><line x1="26" x2="34" y1="34" y2="26" class="st12"/></g></g></svg>