<svg xmlns="http://www.w3.org/2000/svg" width="64" height="64" viewBox="0 0 64 64"><ellipse cx="32" cy="34" fill="#000" fill-opacity=".1" rx="29.5" ry="30"/><circle cx="32" cy="32" r="30" fill="#58bf43"/><circle cx="32" cy="32" r="29.5" fill="none" stroke="#41a833" stroke-width="1"/><path fill="none" stroke="#41a833" stroke-width="2" d="M50,47.131L47.131,50,36.776,39.647a16.038,16.038,0,1,1,2.871-2.871ZM27,15A12,12,0,1,0,39,27,12,12,0,0,0,27,15Z"/><path fill="#fff" d="M50,47.131L47.131,50,36.776,39.647a16.038,16.038,0,1,1,2.871-2.871ZM27,15A12,12,0,1,0,39,27,12,12,0,0,0,27,15Z"/><circle cx="27" cy="27" r="13" fill="#fff" fill-opacity=".2"/></svg>