<svg xmlns="http://www.w3.org/2000/svg" width="16" height="16" viewBox="0 0 16 16"><circle cx="8" cy="8" r="8" fill="#58bf43"/><circle cx="8" cy="8" r="7.5" fill="none" stroke="#41a833" stroke-width="1"/><path fill="none" stroke="#41a833" stroke-width="2" d="M12.879,12L12,12.879,9.015,9.9A4.276,4.276,0,1,1,9.9,9.015ZM6.5,3.536A2.964,2.964,0,1,0,9.464,6.5,2.964,2.964,0,0,0,6.5,3.536Z"/><path fill="#fff" d="M12.879,12L12,12.879,9.015,9.9A4.276,4.276,0,1,1,9.9,9.015ZM6.5,3.536A2.964,2.964,0,1,0,9.464,6.5,2.964,2.964,0,0,0,6.5,3.536Z"/></svg>