<svg xmlns="http://www.w3.org/2000/svg" width="16" height="16" viewBox="0 0 16 16"><style>g:not(:target){display:none}.glyph{fill:#4d4d4d}.glyph.translucent,.inverted .glyph.translucent{fill-opacity:.15}.inverted .glyph{fill:#fff}</style><g id="icon"><path d="M12,16H4a1,1,0,0,1-1-1V1A1,1,0,0,1,4,0h8a1,1,0,0,1,1,1V15A1,1,0,0,1,12,16Zm-4-.684a0.785,0.785,0,1,0-.785-0.785A0.785,0.785,0,0,0,8,15.316ZM12,2H4V13h8V2Z" class="glyph"/><rect width="8" height="11" x="4" y="2" class="glyph translucent"/></g><g id="icon-inverted" class="inverted"><path d="M12,16H4a1,1,0,0,1-1-1V1A1,1,0,0,1,4,0h8a1,1,0,0,1,1,1V15A1,1,0,0,1,12,16Zm-4-.684a0.785,0.785,0,1,0-.785-0.785A0.785,0.785,0,0,0,8,15.316ZM12,2H4V13h8V2Z" class="glyph"/><rect width="8" height="11" x="4" y="2" class="glyph translucent"/></g></svg>