<svg xmlns="http://www.w3.org/2000/svg" width="16" height="16" viewBox="0 0 16 16"><style>g:not(:target){display:none}.glyph{fill:#4d4d4d}.glyph.translucent,.inverted .glyph.translucent{fill-opacity:.15}.inverted .glyph{fill:#fff}</style><g id="icon"><path d="M15,14H1a1,1,0,0,1-1-1V12.526H16V13A1,1,0,0,1,15,14ZM1,4A1,1,0,0,1,2,3H14a1,1,0,0,1,1,1v8H1V4Zm1,7H14V4H2v7Z" class="glyph"/><rect width="12" height="7" x="2" y="4" class="glyph translucent"/></g><g id="icon-inverted" class="inverted"><path d="M15,14H1a1,1,0,0,1-1-1V12.526H16V13A1,1,0,0,1,15,14ZM1,4A1,1,0,0,1,2,3H14a1,1,0,0,1,1,1v8H1V4Zm1,7H14V4H2v7Z" class="glyph"/><rect width="12" height="7" x="2" y="4" class="glyph translucent"/></g></svg>